PathFileType	4	(X/Y/Z)	C:/Users/opensim2020/Desktop/walking_exp_matlab/subject02/subject02_trc/subject02_walking16_run_cyclic.trc	
DataRate	CameraRate	NumFrames	NumMarkers	Units	OrigDataRate	OrigDataStartFrame	OrigNumFrames	
100.00	100.00	5	51	mm	100.00	207	60	
Frame#	Time	RTOE			LSHO			LELB			RELB			RFIN			LTHI			LKNE			RWRB			RUPA			LTIB			RASI			LANK			LTOE			RSHO			RWRA			RFRM			LASI			STRN			LFHD			RTHI			RFHD			LWRB			LFIN			LUPA			RKNE			RBHD			LFRM			C7			LWRA			RTIB			CLAV			LHEE			RANK			LBHD			RBAK			RHEE			T10			LPSI			RPSI			*39			*40			*41			*42			*43			*44			*45			*46			*47			*48			*49			*50			
		X1	Y1	Z1	X2	Y2	Z2	X3	Y3	Z3	X4	Y4	Z4	X5	Y5	Z5	X6	Y6	Z6	X7	Y7	Z7	X8	Y8	Z8	X9	Y9	Z9	X10	Y10	Z10	X11	Y11	Z11	X12	Y12	Z12	X13	Y13	Z13	X14	Y14	Z14	X15	Y15	Z15	X16	Y16	Z16	X17	Y17	Z17	X18	Y18	Z18	X19	Y19	Z19	X20	Y20	Z20	X21	Y21	Z21	X22	Y22	Z22	X23	Y23	Z23	X24	Y24	Z24	X25	Y25	Z25	X26	Y26	Z26	X27	Y27	Z27	X28	Y28	Z28	X29	Y29	Z29	X30	Y30	Z30	X31	Y31	Z31	X32	Y32	Z32	X33	Y33	Z33	X34	Y34	Z34	X35	Y35	Z35	X36	Y36	Z36	X37	Y37	Z37	X38	Y38	Z38	X39	Y39	Z39	X40	Y40	Z40	X41	Y41	Z41	X42	Y42	Z42	X43	Y43	Z43	X44	Y44	Z44	X45	Y45	Z45	X46	Y46	Z46	X47	Y47	Z47	X48	Y48	Z48	X49	Y49	Z49	X50	Y50	Z50	X51	Y51	Z51	

41	0.400	160.11855	208.57225	118.38275	-132.39299	-105.10659	1506.77991	-279.14264	71.38849	1261.24707	305.35602	-442.18283	1334.02710	337.10162	-272.84518	1092.11475	-138.46791	-293.39780	679.83252	-104.44926	-389.91602	504.86163	319.11508	-335.66052	1098.57996	247.86571	-349.34775	1439.67053	-94.63981	-568.70435	429.10229	139.44429	-108.61905	986.90784	-55.75321	-736.69806	296.40329	-74.34111	-756.68909	134.36697	179.55933	-197.05836	1508.87097	294.53833	-296.02289	1132.93335	319.78540	-389.63510	1220.19312	-97.87333	-114.26894	976.28186	51.50785	-55.05220	1275.35706	-30.81868	-59.83035	1733.40747	241.07834	-86.24704	692.50616	113.27436	-68.33849	1719.10107	-18.28739	110.90318	1242.07446	49.02480	100.45786	1253.95349	-257.24881	-21.68205	1375.62659	186.33882	5.32402	512.91339	95.11048	-200.91966	1626.66895	-142.92085	103.31354	1240.35657	-2.53264	-216.79289	1517.98462	-14.94610	63.83216	1272.42627	192.96529	13.19121	324.32904	34.00237	-84.94154	1450.16174	3.90746	-750.93658	314.67221	157.00215	45.50711	131.25587	-45.84484	-180.33452	1644.45728	36.49313	-301.39319	1365.43066	97.44517	27.53390	69.50334	-6.33430	-300.24741	1261.12939	-22.56788	-307.38489	1059.48364	96.59578	-313.05557	1061.65369																															49.03836	-174.60387	1789.07434			 
42	0.410	154.07138	217.45378	101.88184	-129.28178	-67.70076	1504.36475	-287.29953	99.87534	1258.41736	307.02930	-401.55099	1317.61487	339.73050	-224.94577	1081.99365	-136.97974	-241.01486	670.27374	-103.65519	-333.35095	496.39532	321.60150	-287.70551	1085.86694	251.42021	-311.48587	1425.40491	-92.50497	-515.55902	432.49509	143.03798	-69.63725	984.81708	-52.17513	-690.70911	310.54697	-73.66451	-722.36353	151.36600	185.72168	-159.53551	1501.85474	297.18634	-248.84148	1121.50464	321.58310	-345.43988	1205.51208	-93.85049	-70.91625	973.86951	53.70220	-17.35400	1271.78955	-27.01693	-22.69938	1730.04236	239.61873	-47.66655	688.04620	116.85010	-30.79716	1716.35547	-32.87455	154.32103	1206.37842	35.97777	148.16122	1209.42065	-258.84088	9.88518	1374.56323	185.85724	45.20749	508.49036	99.96529	-162.85988	1623.08704	-156.44945	139.09151	1219.36243	3.08360	-178.31694	1514.67773	-22.84893	108.44109	1237.39270	189.40128	37.79015	319.81183	38.16258	-46.84135	1447.14429	8.37368	-702.66907	328.71759	150.07399	56.17797	125.55922	-41.18493	-142.74919	1640.36047	39.67013	-263.58273	1361.19763	89.53649	34.86306	65.64517	-4.14732	-261.88983	1258.10291	-22.45920	-266.65695	1057.00549	96.06639	-274.32779	1058.31262				-3357.05664	2846.09961	1034.35840																									52.86721	-137.71042	1785.53931			 
43	0.420	145.36125	223.34241	84.20273	-125.70249	-30.04227	1500.67322	-294.76901	127.68656	1255.31323	308.96811	-359.39642	1299.04163	341.88589	-174.80228	1070.68811	-135.78415	-188.07201	660.13672	-102.41057	-275.04956	487.15265	324.21014	-237.30624	1072.16357	255.71053	-273.12241	1409.25769	-90.34335	-460.16367	434.98111	146.78691	-30.72034	982.21222	-49.68531	-640.83893	323.27890	-71.26349	-682.26147	166.91602	192.03815	-121.70117	1493.76343	299.11273	-200.02271	1109.00586	323.76852	-299.21179	1189.36914	-90.55511	-28.50937	970.58801	55.83513	20.40146	1266.89868	-23.40274	14.09948	1725.63049	234.78995	-8.60771	684.67450	120.77486	7.06989	1712.93982	-52.30943	196.25319	1170.23718	16.97141	193.95221	1162.98071	-259.28241	41.99506	1372.48401	185.37909	81.95101	502.49414	104.98911	-124.66360	1618.69836	-172.28409	173.76718	1199.25488	8.82909	-139.50803	1511.17700	-35.22594	151.76031	1200.25793	186.30450	59.57735	314.61322	42.31637	-8.50120	1442.99048	11.19698	-650.93329	341.70792	143.56281	64.40571	119.88087	-36.52561	-105.48758	1635.20166	43.33771	-225.77721	1356.34619	83.01865	39.20453	62.56492	-1.80777	-223.76709	1254.52173	-22.50719	-226.33395	1052.99365	95.43796	-236.07983	1053.72424				-3356.88232	2845.95410	1034.32690																									56.65873	-100.84261	1780.94519			 
44	0.430	135.42230	229.61012	65.73926	-121.58099	7.84784	1495.68005	-301.54364	155.46495	1251.71814	312.00659	-315.37231	1278.73962	343.49411	-121.76398	1059.10449	-134.36055	-134.85268	649.47839	-101.14235	-215.46091	477.52765	326.67914	-184.57870	1057.89294	260.96851	-233.52812	1391.89197	-88.44340	-402.12091	435.79120	150.94127	8.33521	979.01019	-48.22798	-587.77020	334.06094	-68.21361	-635.93042	180.55498	198.41400	-83.49523	1484.35400	300.34546	-149.08670	1095.86047	326.15973	-251.02927	1171.73413	-87.42776	13.02965	966.53064	57.95572	58.18840	1260.67151	-20.14277	50.71268	1720.44641	231.04366	32.10658	682.14935	124.19019	44.90868	1708.92212	-76.24439	236.31633	1133.76636	-8.43884	237.40527	1115.84045	-258.51736	74.37231	1368.80042	184.91403	114.52967	494.84912	110.17274	-86.24111	1613.62585	-189.59238	207.23314	1180.13733	14.55413	-100.51032	1507.07251	-52.30105	193.56067	1161.89624	183.60617	79.48492	308.50473	46.50751	29.90066	1437.58020	12.54782	-596.69733	353.40704	138.29189	72.65235	112.87173	-31.45544	-68.19563	1629.08667	47.51922	-187.82770	1350.77368	79.25931	44.03892	58.55418	0.47288	-186.40886	1250.70166	-22.81139	-186.40619	1047.27673	94.42133	-197.82430	1047.78186				-3356.66113	2846.04053	1034.33936																									60.43134	-63.97443	1775.45398			 
45	0.440	126.32661	239.83093	45.43230	-117.16962	46.00279	1489.49133	-307.69699	183.56062	1247.71838	315.13306	-269.99109	1256.85046	344.27667	-66.15022	1047.48401	-132.79550	-81.51913	638.31348	-99.80757	-154.79672	467.33130	328.56448	-129.41090	1043.66748	266.67578	-193.09543	1373.15588	-87.12965	-341.38217	434.68054	155.66675	47.36573	974.91278	-47.44606	-531.70178	342.66095	-65.66897	-582.97522	191.34656	205.09540	-44.84331	1474.00171	301.53568	-96.05089	1082.90295	328.45786	-200.70667	1153.44263	-83.93768	54.19033	961.99487	59.89634	96.14806	1253.40942	-17.13316	87.13961	1714.81873	233.22285	72.50632	678.67816	127.32256	82.92605	1704.36035	-104.51559	274.23621	1098.07202	-40.67120	277.76929	1069.29712	-257.14603	108.18672	1364.12366	185.14735	141.83948	485.46396	115.43000	-47.71941	1607.97888	-208.17802	239.66902	1161.71704	20.19648	-61.92439	1502.15869	-74.86111	232.55698	1122.70203	182.08502	99.32242	299.67789	50.62521	68.38509	1431.14270	13.20262	-540.44495	363.14178	135.94814	85.63273	102.74026	-26.63127	-31.17393	1622.49548	52.17768	-149.94746	1344.42542	78.37765	52.59311	50.98315	3.47527	-148.10027	1245.68274	-23.63931	-146.70979	1039.87012	93.09864	-159.38287	1040.26013				-3356.79248	2846.07080	1034.48157																									64.01812	-27.31897	1769.45398			 
